<!DOCTYPE svg PUBLIC "-//W3C//DTD SVG 1.1//EN" "http://www.w3.org/Graphics/SVG/1.1/DTD/svg11.dtd">

<!-- Uploaded to: SVG Repo, www.svgrepo.com, Transformed by: SVG Repo Mixer Tools -->
<svg fill="#000000" width="20px" height="20px" viewBox="0 0 24 24" id="place" data-name="Flat Line" xmlns="http://www.w3.org/2000/svg" class="icon flat-line">

<g id="SVGRepo_bgCarrier" stroke-width="0"/>

<g id="SVGRepo_tracerCarrier" stroke-linecap="round" stroke-linejoin="round"/>

<g id="SVGRepo_iconCarrier">

<path id="secondary" d="M12,3A6,6,0,0,0,6,9c0,5,6,12,6,12s6-7,6-12A6,6,0,0,0,12,3Zm0,8a2,2,0,1,1,2-2A2,2,0,0,1,12,11Z" style="fill: #00ff2a; stroke-width: 2;"/>

<path id="primary" d="M14,9a2,2,0,1,1-2-2A2,2,0,0,1,14,9Zm4,0A6,6,0,0,0,6,9c0,5,6,12,6,12S18,14,18,9Z" style="fill: none; stroke: #000000; stroke-linecap: round; stroke-linejoin: round; stroke-width: 2;"/>

</g>

</svg>